# xmcd
#
# Track frame offsets:
# 150
# 8266
# 22796
# 38895
# 50942
# 63724
# 76530
# 87030
# 101024
# 116603
# 130845
# 145984
# 162962
# 176356
# 190494
# 202298
# 213008
#
# Disc length: 3096 seconds
#
#
# Revision: 0
# Processed by: cddbd v1.5.2PL0 Copyright (c) Steve Scherf et al.
# Submitted via: FreeRIP 2.96 
#
DISCID=df0c1611
DTITLE=Carl Meesenbaker - my country favorites, vol. 2
DYEAR=2012
DGENRE=Country
TTITLE0=blue blue day
TTITLE1=hertaches by the number
TTITLE2=if I never stop loving you
TTITLE3=sea of heartbreak
TTITLE4=streets of bakersfield
TTITLE5=its alright to be a redneck
TTITLE6=rollin in my sweet babys arms
TTITLE7=in the misty moonlight
TTITLE8=sweet southern comfort
TTITLE9=good time charlies got the blues
TTITLE10=trail of tears
TTITLE11=I sang dixie
TTITLE12=tropical depression
TTITLE13=the long black veil
TTITLE14=she thinks I still care
TTITLE15=think of me when you are lonely
TTITLE16=toes
EXTD=
EXTT0=
EXTT1=
EXTT2=
EXTT3=
EXTT4=
EXTT5=
EXTT6=
EXTT7=
EXTT8=
EXTT9=
EXTT10=
EXTT11=
EXTT12=
EXTT13=
EXTT14=
EXTT15=
EXTT16=
PLAYORDER=
